<?xml version="1.0" encoding="UTF-8" standalone="no"?>
<!DOCTYPE svg PUBLIC "-//W3C//DTD SVG 1.1//EN"
 "http://www.w3.org/Graphics/SVG/1.1/DTD/svg11.dtd">
<!-- Generated by graphviz version 2.38.0 (20140413.2041)
 -->
<!-- Title: G Pages: 1 -->
<svg width="364pt" height="149pt"
 viewBox="0.00 0.00 364.14 149.00" xmlns="http://www.w3.org/2000/svg" xmlns:xlink="http://www.w3.org/1999/xlink">
<g id="graph0" class="graph" transform="scale(1 1) rotate(0) translate(4 145)">
<title>G</title>
<polygon fill="white" stroke="none" points="-4,4 -4,-145 360.142,-145 360.142,4 -4,4"/>
<g id="clust1" class="cluster"><title>cluster_Global</title>
<path fill="none" stroke="gray" d="M189.519,-8C189.519,-8 336.142,-8 336.142,-8 342.142,-8 348.142,-14 348.142,-20 348.142,-20 348.142,-121 348.142,-121 348.142,-127 342.142,-133 336.142,-133 336.142,-133 189.519,-133 189.519,-133 183.519,-133 177.519,-127 177.519,-121 177.519,-121 177.519,-20 177.519,-20 177.519,-14 183.519,-8 189.519,-8"/>
<text text-anchor="middle" x="262.83" y="-120.2" font-family="Times,serif" font-size="11.00" fill="gray">Global</text>
</g>
<!-- \\AppMetadata -->
<g id="node1" class="node"><title>\\AppMetadata</title>
<polygon fill="none" stroke="black" points="306.943,-106 218.718,-106 218.718,-70 306.943,-70 306.943,-106"/>
<text text-anchor="middle" x="262.83" y="-84.7" font-family="Courier,monospace" font-size="11.00">AppMetadata</text>
</g>
<!-- \\ArrayObject -->
<g id="node3" class="node"><title>\\ArrayObject</title>
<ellipse fill="none" stroke="black" cx="56.7596" cy="-88" rx="56.5201" ry="18"/>
<text text-anchor="middle" x="56.7596" y="-83.8" font-family="Times,serif" font-size="14.00" fill="gray">\ArrayObject</text>
</g>
<!-- \\AppMetadata&#45;&gt;\\ArrayObject -->
<g id="edge1" class="edge"><title>\\AppMetadata&#45;&gt;\\ArrayObject</title>
<path fill="none" stroke="black" d="M218.552,-88C191.117,-88 155.085,-88 124.085,-88"/>
<polygon fill="none" stroke="black" points="123.784,-84.5001 113.784,-88 123.784,-91.5001 123.784,-84.5001"/>
</g>
<!-- \\AppMetadata_Exception -->
<g id="node2" class="node"><title>\\AppMetadata_Exception</title>
<polygon fill="none" stroke="black" points="339.953,-52 185.707,-52 185.707,-16 339.953,-16 339.953,-52"/>
<text text-anchor="middle" x="262.83" y="-30.7" font-family="Courier,monospace" font-size="11.00">AppMetadata_Exception</text>
</g>
<!-- \\Exception -->
<g id="node4" class="node"><title>\\Exception</title>
<ellipse fill="none" stroke="black" cx="56.7596" cy="-34" rx="48.3341" ry="18"/>
<text text-anchor="middle" x="56.7596" y="-29.8" font-family="Times,serif" font-size="14.00" fill="gray">\Exception</text>
</g>
<!-- \\AppMetadata_Exception&#45;&gt;\\Exception -->
<g id="edge2" class="edge"><title>\\AppMetadata_Exception&#45;&gt;\\Exception</title>
<path fill="none" stroke="black" d="M185.552,-34C162.292,-34 137.121,-34 115.318,-34"/>
<polygon fill="none" stroke="black" points="115.234,-30.5001 105.234,-34 115.234,-37.5001 115.234,-30.5001"/>
</g>
</g>
</svg>
