<?xml version="1.0" encoding="UTF-8" standalone="no"?>
<!DOCTYPE svg PUBLIC "-//W3C//DTD SVG 1.1//EN"
 "http://www.w3.org/Graphics/SVG/1.1/DTD/svg11.dtd">
<!-- Generated by graphviz version 2.38.0 (20140413.2041)
 -->
<!-- Title: G Pages: 1 -->
<svg width="372pt" height="184pt"
 viewBox="0.00 0.00 372.14 184.00" xmlns="http://www.w3.org/2000/svg" xmlns:xlink="http://www.w3.org/1999/xlink">
<g id="graph0" class="graph" transform="scale(1 1) rotate(0) translate(4 180)">
<title>G</title>
<polygon fill="white" stroke="none" points="-4,4 -4,-180 368.142,-180 368.142,4 -4,4"/>
<g id="clust1" class="cluster"><title>cluster_Global</title>
<path fill="none" stroke="gray" d="M181.519,-8C181.519,-8 344.142,-8 344.142,-8 350.142,-8 356.142,-14 356.142,-20 356.142,-20 356.142,-156 356.142,-156 356.142,-162 350.142,-168 344.142,-168 344.142,-168 181.519,-168 181.519,-168 175.519,-168 169.519,-162 169.519,-156 169.519,-156 169.519,-20 169.519,-20 169.519,-14 175.519,-8 181.519,-8"/>
<text text-anchor="middle" x="262.83" y="-155.2" font-family="Times,serif" font-size="11.00" fill="gray">Global</text>
</g>
<g id="clust2" class="cluster"><title>cluster_\Battis</title>
<path fill="none" stroke="gray" d="M189.519,-16C189.519,-16 336.142,-16 336.142,-16 342.142,-16 348.142,-22 348.142,-28 348.142,-28 348.142,-129 348.142,-129 348.142,-135 342.142,-141 336.142,-141 336.142,-141 189.519,-141 189.519,-141 183.519,-141 177.519,-135 177.519,-129 177.519,-129 177.519,-28 177.519,-28 177.519,-22 183.519,-16 189.519,-16"/>
<text text-anchor="middle" x="262.83" y="-128.2" font-family="Times,serif" font-size="11.00" fill="gray">Battis</text>
</g>
<!-- \\Battis\\AppMetadata -->
<g id="node1" class="node"><title>\\Battis\\AppMetadata</title>
<polygon fill="none" stroke="black" points="306.943,-114 218.718,-114 218.718,-78 306.943,-78 306.943,-114"/>
<text text-anchor="middle" x="262.83" y="-92.7" font-family="Courier,monospace" font-size="11.00">AppMetadata</text>
</g>
<!-- \\ArrayObject -->
<g id="node3" class="node"><title>\\ArrayObject</title>
<ellipse fill="none" stroke="black" cx="56.7596" cy="-96" rx="56.5201" ry="18"/>
<text text-anchor="middle" x="56.7596" y="-91.8" font-family="Times,serif" font-size="14.00" fill="gray">\ArrayObject</text>
</g>
<!-- \\Battis\\AppMetadata&#45;&gt;\\ArrayObject -->
<g id="edge1" class="edge"><title>\\Battis\\AppMetadata&#45;&gt;\\ArrayObject</title>
<path fill="none" stroke="black" d="M218.552,-96C191.117,-96 155.085,-96 124.085,-96"/>
<polygon fill="none" stroke="black" points="123.784,-92.5001 113.784,-96 123.784,-99.5001 123.784,-92.5001"/>
</g>
<!-- \\Battis\\AppMetadata_Exception -->
<g id="node2" class="node"><title>\\Battis\\AppMetadata_Exception</title>
<polygon fill="none" stroke="black" points="339.953,-60 185.707,-60 185.707,-24 339.953,-24 339.953,-60"/>
<text text-anchor="middle" x="262.83" y="-38.7" font-family="Courier,monospace" font-size="11.00">AppMetadata_Exception</text>
</g>
<!-- \\Exception -->
<g id="node4" class="node"><title>\\Exception</title>
<ellipse fill="none" stroke="black" cx="56.7596" cy="-42" rx="48.3341" ry="18"/>
<text text-anchor="middle" x="56.7596" y="-37.8" font-family="Times,serif" font-size="14.00" fill="gray">\Exception</text>
</g>
<!-- \\Battis\\AppMetadata_Exception&#45;&gt;\\Exception -->
<g id="edge2" class="edge"><title>\\Battis\\AppMetadata_Exception&#45;&gt;\\Exception</title>
<path fill="none" stroke="black" d="M185.552,-42C162.292,-42 137.121,-42 115.318,-42"/>
<polygon fill="none" stroke="black" points="115.234,-38.5001 105.234,-42 115.234,-45.5001 115.234,-38.5001"/>
</g>
</g>
</svg>
